# xmcd
#
# Track frame offsets: 
#        150
#        11352
#        22529
#        32942
#        45122
#        58385
#        68906
#        79148
#        90540
#        100363
#        111805
#        123953
#
# Disc length: 1804 seconds
#
# Revision: 0
# Processed by: cddbd v1.5.2PL0 Copyright (c) Steve Scherf et al.
# Submitted via: ExactAudioCopy v1.0b1
#
DISCID=8b070a0c
DTITLE=Wilson Pickett - In The Midnight Hour
DYEAR=1966
DGENRE=R&B
TTITLE0=In The Midnight Hour (mono)
TTITLE1=Teardrops Will Fall (mono)
TTITLE2=Take A Little Love (mono)
TTITLE3=For Better Or Worse (mono)
TTITLE4=I Found A Love (mono)
TTITLE5=That's A Man's Way (mono)
TTITLE6=I'm Gonna Cry (mono)
TTITLE7=Don't Fight It (mono)
TTITLE8=Take This Love I've Got (mono)
TTITLE9=Come Home Baby (mono)
TTITLE10=I'm Not Tired (mono)
TTITLE11=Let's Kiss And Make Up (mono)
EXTD=
EXTT0=
EXTT1=
EXTT2=
EXTT3=
EXTT4=
EXTT5=
EXTT6=
EXTT7=
EXTT8=
EXTT9=
EXTT10=
EXTT11=
PLAYORDER=
